# Blender 4.0.2
# www.blender.org
mtllib cone.mtl
o Cone
v 0.000000 0.000000 0.000000
v 0.250000 0.000000 0.000000
v 0.187500 0.250000 0.000000
v 0.125000 0.500000 0.000000
v 0.062500 0.750000 0.000000
v 0.000000 1.000000 0.000000
v 0.176777 0.000000 0.176777
v 0.132583 0.250000 0.132583
v 0.088388 0.500000 0.088388
v 0.044194 0.750000 0.044194
v 0.000000 1.000000 0.000000
v 0.000000 0.000000 0.250000
v 0.000000 0.250000 0.187500
v 0.000000 0.500000 0.125000
v 0.000000 0.750000 0.062500
v 0.000000 1.000000 0.000000
v -0.176777 0.000000 0.176777
v -0.132583 0.250000 0.132583
v -0.088388 0.500000 0.088388
v -0.044194 0.750000 0.044194
v 0.000000 1.000000 0.000000
v -0.250000 0.000000 0.000000
v -0.187500 0.250000 0.000000
v -0.125000 0.500000 0.000000
v -0.062500 0.750000 0.000000
v 0.000000 1.000000 0.000000
v -0.176777 0.000000 -0.176777
v -0.132583 0.250000 -0.132583
v -0.088388 0.500000 -0.088388
v -0.044194 0.750000 -0.044194
v 0.000000 1.000000 0.000000
v -0.000000 0.000000 -0.250000
v -0.000000 0.250000 -0.187500
v -0.000000 0.500000 -0.125000
v -0.000000 0.750000 -0.062500
v 0.000000 1.000000 0.000000
v 0.176777 0.000000 -0.176777
v 0.132583 0.250000 -0.132583
v 0.088388 0.500000 -0.088388
v 0.044194 0.750000 -0.044194
v 0.000000 1.000000 0.000000
v 0.250000 0.000000 0.000000
v 0.062500 0.750000 0.000000
v 0.176777 0.000000 0.176777
v 0.132583 0.250000 0.132583
v 0.088388 0.500000 0.088388
v 0.044194 0.750000 0.044194
v 0.044194 0.750000 0.044194
v 0.000000 0.000000 0.250000
v 0.000000 0.250000 0.187500
v 0.000000 0.500000 0.125000
v 0.000000 0.750000 0.062500
v 0.000000 0.750000 0.062500
v -0.176777 0.000000 0.176777
v -0.132583 0.250000 0.132583
v -0.088388 0.500000 0.088388
v -0.044194 0.750000 0.044194
v -0.044194 0.750000 0.044194
v -0.250000 0.000000 0.000000
v -0.187500 0.250000 0.000000
v -0.125000 0.500000 0.000000
v -0.062500 0.750000 0.000000
v -0.062500 0.750000 0.000000
v -0.176777 0.000000 -0.176777
v -0.132583 0.250000 -0.132583
v -0.088388 0.500000 -0.088388
v -0.044194 0.750000 -0.044194
v -0.044194 0.750000 -0.044194
v -0.000000 0.000000 -0.250000
v -0.000000 0.250000 -0.187500
v -0.000000 0.500000 -0.125000
v -0.000000 0.750000 -0.062500
v -0.000000 0.750000 -0.062500
v 0.176777 0.000000 -0.176777
v 0.132583 0.250000 -0.132583
v 0.187500 0.250000 0.000000
v 0.088388 0.500000 -0.088388
v 0.125000 0.500000 0.000000
v 0.044194 0.750000 -0.044194
v 0.062500 0.750000 0.000000
v 0.044194 0.750000 -0.044194
v 0.176777 0.000000 0.176777
v 0.000000 1.000000 0.000000
v 0.000000 0.000000 0.250000
v 0.000000 1.000000 0.000000
v -0.176777 0.000000 0.176777
v 0.000000 1.000000 0.000000
v -0.250000 0.000000 0.000000
v 0.000000 1.000000 0.000000
v -0.176777 0.000000 -0.176777
v 0.000000 1.000000 0.000000
v -0.000000 0.000000 -0.250000
v 0.000000 1.000000 0.000000
v 0.176777 0.000000 -0.176777
v 0.000000 1.000000 0.000000
v 0.250000 0.000000 0.000000
v 0.000000 1.000000 0.000000
vn -0.0000 -1.0000 -0.0000
vn 0.9002 0.2250 0.3729
vn -0.0000 1.0000 -0.0000
vn 0.3729 0.2250 0.9002
vn -0.3729 0.2250 0.9002
vn -0.9002 0.2250 0.3729
vn -0.9002 0.2250 -0.3729
vn -0.3729 0.2250 -0.9002
vn 0.3729 0.2250 -0.9002
vn 0.9002 0.2250 -0.3729
s 0
usemtl coneColor
f 1//1 2//1 7//1
f 42//2 3//2 8//2
f 3//2 4//2 9//2
f 4//2 5//2 10//2
s 1
f 43//3 6//3 11//3
s 0
f 1//1 7//1 12//1
f 44//4 45//4 13//4
f 45//4 46//4 14//4
f 46//4 47//4 15//4
s 1
f 48//3 11//3 16//3
s 0
f 1//1 12//1 17//1
f 49//5 50//5 18//5
f 50//5 51//5 19//5
f 51//5 52//5 20//5
s 1
f 53//3 16//3 21//3
s 0
f 1//1 17//1 22//1
f 54//6 55//6 23//6
f 55//6 56//6 24//6
f 56//6 57//6 25//6
s 1
f 58//3 21//3 26//3
s 0
f 1//1 22//1 27//1
f 59//7 60//7 28//7
f 60//7 61//7 29//7
f 61//7 62//7 30//7
s 1
f 63//3 26//3 31//3
s 0
f 1//1 27//1 32//1
f 64//8 65//8 33//8
f 65//8 66//8 34//8
f 66//8 67//8 35//8
s 1
f 68//3 31//3 36//3
s 0
f 1//1 32//1 37//1
f 69//9 70//9 38//9
f 70//9 71//9 39//9
f 71//9 72//9 40//9
s 1
f 73//3 36//3 41//3
s 0
f 1//1 37//1 2//1
f 74//10 75//10 76//10
f 75//10 77//10 78//10
f 77//10 79//10 80//10
s 1
f 81//3 41//3 6//3
s 0
f 42//2 8//2 82//2
f 3//2 9//2 8//2
f 4//2 10//2 9//2
f 5//2 83//2 10//2
f 44//4 13//4 84//4
f 45//4 14//4 13//4
f 46//4 15//4 14//4
f 47//4 85//4 15//4
f 49//5 18//5 86//5
f 50//5 19//5 18//5
f 51//5 20//5 19//5
f 52//5 87//5 20//5
f 54//6 23//6 88//6
f 55//6 24//6 23//6
f 56//6 25//6 24//6
f 57//6 89//6 25//6
f 59//7 28//7 90//7
f 60//7 29//7 28//7
f 61//7 30//7 29//7
f 62//7 91//7 30//7
f 64//8 33//8 92//8
f 65//8 34//8 33//8
f 66//8 35//8 34//8
f 67//8 93//8 35//8
f 69//9 38//9 94//9
f 70//9 39//9 38//9
f 71//9 40//9 39//9
f 72//9 95//9 40//9
f 74//10 76//10 96//10
f 75//10 78//10 76//10
f 77//10 80//10 78//10
f 79//10 97//10 80//10
